<svg xmlns="http://www.w3.org/2000/svg" viewBox="0 0 512 512"><defs><linearGradient id="b" x1="0" y1="0" x2="1" y2="1"><stop stop-color="#ff2438"/><stop offset=".55" stop-color="#d51b38"/><stop offset="1" stop-color="#2d7cff"/></linearGradient><filter id="s"><feDropShadow dx="0" dy="18" stdDeviation="18" flood-opacity=".45"/></filter></defs><rect width="512" height="512" rx="110" fill="#05070b"/><rect x="30" y="30" width="452" height="452" rx="95" fill="url(#b)"/><circle cx="256" cy="235" r="150" fill="#06090f" opacity=".96" filter="url(#s)"/><path d="M127 356c12-56 50-94 129-113v-38c-38-23-56-59-56-101 0-64 43-109 114-109s114 45 114 109c0 42-18 78-56 101v38c79 19 117 57 129 113H127Z" fill="#f3efe6"/><path d="M189 190h134l29 24-29 25H189l-29-25 29-24Z" fill="#070a10"/><circle cx="256" cy="91" r="27" fill="#070a10"/><text x="256" y="430" text-anchor="middle" font-family="Arial,sans-serif" font-size="50" font-weight="900" letter-spacing="8" fill="#fff">CN</text></svg>